<?xml version="1.0" encoding="utf-8"?>
<!-- Generator: Adobe Illustrator 17.0.0, SVG Export Plug-In . SVG Version: 6.00 Build 0)  -->
<!DOCTYPE svg PUBLIC "-//W3C//DTD SVG 1.1//EN" "http://www.w3.org/Graphics/SVG/1.1/DTD/svg11.dtd">
<svg version="1.1" xmlns="http://www.w3.org/2000/svg" xmlns:xlink="http://www.w3.org/1999/xlink" x="0px" y="0px" width="48px"
	 height="48px" viewBox="0 0 48 48" enable-background="new 0 0 48 48" xml:space="preserve">
<g id="Layer_1">
</g>
<g id="flag-3">
</g>
<g id="flag-2">
</g>
<g id="flag">
</g>
<g id="direction-2">
</g>
<g id="direction">
</g>
<g id="globe-stand">
</g>
<g id="tree">
</g>
<g id="people-area">
</g>
<g id="people">
</g>
<g id="locate-people">
</g>
<g id="transmiter">
</g>
<g id="globe-locate">
	<path fill="#007AFF" d="M24,46.932c-4.21,0-8.419-1.602-11.624-4.807c-6.409-6.41-6.409-16.839,0-23.249
		c0.391-0.391,1.023-0.391,1.414,0s0.391,1.023,0,1.414c-5.63,5.63-5.63,14.791,0,20.421c5.629,5.629,14.789,5.628,20.42,0
		c5.63-5.63,5.63-14.791,0-20.421c-0.391-0.391-0.391-1.023,0-1.414s1.023-0.391,1.414,0c6.409,6.41,6.409,16.839,0,23.249
		C32.419,45.33,28.21,46.932,24,46.932z"/>
	<path fill="#007AFF" d="M24,36c-0.267,0-0.521-0.106-0.709-0.295c-0.498-0.5-12.187-12.366-12.187-21.81C11.104,6.785,16.89,1,24,1
		s12.896,5.785,12.896,12.896c0,9.399-11.688,21.306-12.186,21.808C24.522,35.893,24.268,36,24,36L24,36z M24,3
		c-6.008,0-10.896,4.888-10.896,10.896c0,7.364,8.371,16.935,10.895,19.652c2.521-2.725,10.896-12.329,10.896-19.652
		C34.896,7.888,30.008,3,24,3z"/>
	<path fill="#007AFF" d="M24,20.302c-3.334,0-6.047-2.712-6.047-6.046S20.666,8.209,24,8.209s6.047,2.712,6.047,6.046
		S27.334,20.302,24,20.302z M24,10.209c-2.231,0-4.047,1.815-4.047,4.046s1.815,4.046,4.047,4.046s4.047-1.815,4.047-4.046
		S26.231,10.209,24,10.209z"/>
</g>
<g id="globesearch">
</g>
<g id="globe-pointer">
</g>
<g id="globe">
</g>
<g id="place-2">
</g>
<g id="place">
</g>
<g id="gothic-directer">
</g>
<g id="pin-long">
</g>
<g id="pin">
</g>
<g id="map-lock">
</g>
<g id="map-close">
</g>
<g id="map-minus">
</g>
<g id="mapp-add">
</g>
<g id="map-point">
</g>
<g id="locate-track">
</g>
<g id="locate-lock">
</g>
<g id="locate-close_1_">
</g>
<g id="locate-remove">
</g>
<g id="locate-pluse">
</g>
<g id="map-circle">
</g>
<g id="maplocate-3">
</g>
<g id="navigater">
</g>
<g id="navigate-2">
</g>
<g id="navigate">
</g>
<g id="track">
</g>
<g id="map-locater-s">
</g>
<g id="map-locate">
</g>
<g id="maphold">
</g>
<g id="map">
</g>
<g id="locate-fav">
</g>
<g id="locate-5">
</g>
<g id="locate-close">
</g>
<g id="locateminus">
</g>
<g id="locate-add">
</g>
<g id="locate-favorite">
</g>
<g id="locate4">
</g>
<g id="locate-3">
</g>
<g id="locate-1">
</g>
<g id="locate">
</g>
</svg>
