<?xml version="1.0" encoding="utf-8"?>
<!-- Generator: Adobe Illustrator 17.0.0, SVG Export Plug-In . SVG Version: 6.00 Build 0)  -->
<!DOCTYPE svg PUBLIC "-//W3C//DTD SVG 1.1//EN" "http://www.w3.org/Graphics/SVG/1.1/DTD/svg11.dtd">
<svg version="1.1" xmlns="http://www.w3.org/2000/svg" xmlns:xlink="http://www.w3.org/1999/xlink" x="0px" y="0px" width="48px"
	 height="48px" viewBox="0 0 48 48" enable-background="new 0 0 48 48" xml:space="preserve">
<g id="Layer_1">
</g>
<g id="flag-3">
</g>
<g id="flag-2">
</g>
<g id="flag">
</g>
<g id="direction-2">
</g>
<g id="direction">
</g>
<g id="globe-stand">
</g>
<g id="tree">
</g>
<g id="people-area">
</g>
<g id="people">
</g>
<g id="locate-people">
</g>
<g id="transmiter">
</g>
<g id="globe-locate">
</g>
<g id="globesearch">
</g>
<g id="globe-pointer">
</g>
<g id="globe">
</g>
<g id="place-2">
</g>
<g id="place">
</g>
<g id="gothic-directer">
</g>
<g id="pin-long">
</g>
<g id="pin">
</g>
<g id="map-lock">
</g>
<g id="map-close">
</g>
<g id="map-minus">
</g>
<g id="mapp-add">
</g>
<g id="map-point">
</g>
<g id="locate-track">
</g>
<g id="locate-lock">
</g>
<g id="locate-close_1_">
</g>
<g id="locate-remove">
</g>
<g id="locate-pluse">
</g>
<g id="map-circle">
</g>
<g id="maplocate-3">
</g>
<g id="navigater">
</g>
<g id="navigate-2">
</g>
<g id="navigate">
</g>
<g id="track">
</g>
<g id="map-locater-s">
</g>
<g id="map-locate">
</g>
<g id="maphold">
</g>
<g id="map">
</g>
<g id="locate-fav">
	<path fill="#007AFF" d="M24,47c-0.451,0-0.846-0.302-0.965-0.737l-3.546-13.001c-0.165-0.607-0.626-1.108-1.233-1.342
		C11.795,29.433,7.682,23.115,8.02,16.198C8.418,8.066,15.1,1.399,23.231,1.018C32.429,0.608,40,7.923,40,17
		c0,6.571-4.128,12.569-10.271,14.926c-0.597,0.229-1.053,0.728-1.218,1.335l-3.546,13.002C24.846,46.698,24.451,47,24,47z M24,3
		c-0.225,0-0.449,0.005-0.675,0.016c-7.114,0.333-12.959,6.166-13.308,13.28c-0.296,6.053,3.304,11.582,8.957,13.758
		c1.198,0.461,2.112,1.463,2.444,2.682L24,42.199l2.581-9.465c0.333-1.219,1.241-2.219,2.431-2.675C34.388,27.996,38,22.749,38,17
		C38,9.28,31.72,3,24,3z"/>
	<path fill="#007AFF" d="M19.013,24.863c-0.204,0-0.408-0.063-0.583-0.188c-0.351-0.251-0.501-0.701-0.371-1.113l1.695-5.382
		l-4.432-3.386c-0.341-0.26-0.478-0.709-0.34-1.115C15.12,13.273,15.501,13,15.93,13h5.438l1.681-5.172
		C23.183,7.416,23.566,7.137,24,7.137s0.817,0.279,0.951,0.691L26.632,13h5.438c0.429,0,0.81,0.273,0.947,0.679
		s0.001,0.854-0.339,1.115l-4.43,3.396l1.69,5.293c0.132,0.411-0.015,0.859-0.363,1.113c-0.35,0.253-0.821,0.254-1.171,0.004
		l-4.399-3.152l-4.402,3.221C19.428,24.798,19.22,24.863,19.013,24.863z M18.886,15l2.64,2.017c0.334,0.255,0.473,0.693,0.347,1.095
		l-0.99,3.145l2.527-1.849c0.349-0.255,0.822-0.257,1.173-0.006l2.534,1.815l-0.986-3.088c-0.129-0.402,0.009-0.841,0.344-1.098
		L29.122,15h-3.217c-0.434,0-0.817-0.279-0.951-0.691L24,11.373l-0.954,2.937C22.912,14.721,22.528,15,22.095,15H18.886z"/>
</g>
<g id="locate-5">
</g>
<g id="locate-close">
</g>
<g id="locateminus">
</g>
<g id="locate-add">
</g>
<g id="locate-favorite">
</g>
<g id="locate4">
</g>
<g id="locate-3">
</g>
<g id="locate-1">
</g>
<g id="locate">
</g>
</svg>
